{"title":"The Night Of S01E01 1080p HDTV HEVC DD2.0 x265","uid":15432413,"size":1324870494,"categoryP":"video","categoryS":"hd___tv_shows","magnet":"?xt=urn:btih:d9d61958c201884bcc4f65acc298bd27a80da6b0&amp;dn=The+Night+Of+S01E01+1080p+HDTV+HEVC+DD2.0+x265&amp;tr=udp%3A%2F%2Ftracker.leechers-paradise.org%3A6969&amp;tr=udp%3A%2F%2Fzer0day.ch%3A1337&amp;tr=udp%3A%2F%2Fopen.demonii.com%3A1337&amp;tr=udp%3A%2F%2Ftracker.coppersurfer.tk%3A6969&amp;tr=udp%3A%2F%2Fexodus.desync.com%3A6969","seeders":26,"leechers":1,"uploader":"nayhtut","files":1,"time":1469736069,"description":"[Screenshots]\r\n\r\n \nhttps://s32.postimg.org/swhokoft1/The_Night_Of_S01_E01_1080p_HDTV_HEVC_DD2_0_x265_0.jpg \nhttps://s32.postimg.org/lujqyhc79/The_Night_Of_S01_E01_1080p_HDTV_HEVC_DD2_0_x265_0.jpg \nhttps://s32.postimg.org/efuf63qbp/The_Night_Of_S01_E01_1080p_HDTV_HEVC_DD2_0_x265_0.jpg\r\n\r\n\r\n\r\nSource: THE NIGHT OF S01E01 1080P HDTV DD5 1 X264-CASSTUDIO (2.96 GB)\r\n\r\n\r\n__--__--__--__--__--__--__--__--__--__--__--__--__--\r\n\r\n\r\nComplete name                            : The.Night.Of.S01E01.1080p.HDTV.HEVC.DD2.0.x265.mkv\r\nFormat                                   : Matroska\r\nFormat version                           : Version 4 / Version 2\r\nFile size                                : 1.23 GiB\r\nDuration                                 : 1h 15mn\r\nOverall bit rate                         : 2 344 Kbps\r\nEncoded date                             : UTC 2016-07-22 01:01:01\r\nWriting application                      : mkvmerge v9.3.1 ('Mask Machine') 32bit\r\nWriting library                          : libebml v1.3.4 + libmatroska v1.4.5\r\nDURATION                                 : 01:15:21.952000000\r\nNUMBER_OF_FRAMES                         : 141311\r\nNUMBER_OF_BYTES                          : 180878080\r\n_STATISTICS_WRITING_APP                  : mkvmerge v9.3.1 ('Mask Machine') 32bit\r\n_STATISTICS_WRITING_DATE_UTC             : 2016-07-22 01:01:01\r\n_STATISTICS_TAGS                         : BPS DURATION NUMBER_OF_FRAMES NUMBER_OF_BYTES\r\n\r\nVideo\r\n\r\nID                                       : 1\r\nFormat                                   : V_MPEGH/ISO/HEVC\r\nCodec ID                                 : V_MPEGH/ISO/HEVC\r\nDuration                                 : 1h 15mn\r\nBit rate                                 : 1 977 Kbps\r\nWidth                                    : 1 920 pixels\r\nHeight                                   : 1 080 pixels\r\nDisplay aspect ratio                     : 16:9\r\nFrame rate                               : 25.000 fps\r\nBits/(Pixel*Frame)                       : 0.038\r\nStream size                              : 1.04 GiB (84%)\r\nLanguage                                 : English\r\nDefault                                  : Yes\r\nForced                                   : No\r\nDURATION                                 : 01:15:22.000000000\r\nNUMBER_OF_FRAMES                         : 113050\r\nNUMBER_OF_BYTES                          : 1142887926\r\n_STATISTICS_WRITING_APP                  : mkvmerge v9.3.1 ('Mask Machine') 32bit\r\n_STATISTICS_WRITING_DATE_UTC             : 2016-07-22 01:01:01\r\n_STATISTICS_TAGS                         : BPS DURATION NUMBER_OF_FRAMES NUMBER_OF_BYTES\r\n\r\nAudio\r\n\r\nID                                       : 2\r\nFormat                                   : AC-3\r\nFormat/Info                              : Audio Coding 3\r\nMode extension                           : CM (complete main)\r\nFormat settings, Endianness              : Big\r\nCodec ID                                 : A_AC3\r\nDuration                                 : 1h 15mn\r\nBit rate mode                            : Constant\r\nBit rate                                 : 320 Kbps\r\nChannel(s)                               : 2 channels\r\nChannel positions                        : Front: L R\r\nSampling rate                            : 48.0 KHz\r\nBit depth                                : 16 bits\r\nCompression mode                         : Lossy\r\nStream size                              : 173 MiB (14%)\r\nTitle                                    : AC-3 2.0 @ 320kbps\r\nLanguage                                 : English\r\nDefault                                  : Yes\r\nForced                                   : No\r\n\r\nText\r\n\r\nID                                       : 3\r\nFormat                                   : ASS\r\nCodec ID                                 : S_TEXT/ASS\r\nCodec ID/Info                            : Advanced Sub Station Alpha\r\nCompression mode                         : Lossless\r\nLanguage                                 : English\r\nDefault                                  : No\r\nForced                                   : No\r\nDURATION                                 : 01:12:16.250000000\r\nNUMBER_OF_FRAMES                         : 1091\r\nNUMBER_OF_BYTES                          : 53317\r\n_STATISTICS_WRITING_APP                  : mkvmerge v9.3.1 ('Mask Machine') 32bit\r\n_STATISTICS_WRITING_DATE_UTC             : 2016-07-22 01:01:01\r\n_STATISTICS_TAGS                         : BPS DURATION NUMBER_OF_FRAMES NUMBER_OF_BYTES\r\n\r\n\r\n__--__--__--__--__--__--__--__--__--__--__--__--__--\r\n\r\n\r\nIMDb: http://www.imdb.com/title/tt2401256\r\n\r\nAfter adding torrent with maget link,\r\n\r\nplease add this  following trackers list to the torrent for better seeds.\r\n\r\n\r\nudp://tracker.coppersurfer.tk:6969/announce\r\n\r\nudp://tracker.opentrackr.org:1337/announce\r\n \nhttp://tracker.baravik.org:6970/announce\r\n \nhttp://tracker2.wasabii.com.tw:6969/announce\r\n\r\nudp://9.rarbg.me:2710/announce\r\n\r\n\r\n__--__--__--__--__--__--__--__--__--__--__--__--__--\r\n\r\n\r\nEnjoy!","torrent":{"xt":"urn:btih:d9d61958c201884bcc4f65acc298bd27a80da6b0","amp;dn":"The+Night+Of+S01E01+1080p+HDTV+HEVC+DD2.0+x265","amp;tr":["udp%3A%2F%2Ftracker.leechers-paradise.org%3A6969","udp%3A%2F%2Fzer0day.ch%3A1337","udp%3A%2F%2Fopen.demonii.com%3A1337","udp%3A%2F%2Ftracker.coppersurfer.tk%3A6969","udp%3A%2F%2Fexodus.desync.com%3A6969"],"infoHash":"d9d61958c201884bcc4f65acc298bd27a80da6b0","infoHashBuffer":{"type":"Buffer","data":[217,214,25,88,194,1,136,75,204,79,101,172,194,152,189,39,168,13,166,176]},"announce":[],"urlList":[]}}